<svg id="Layer_1" xmlns="http://www.w3.org/2000/svg" width="48" height="48" viewBox="0 0 48 48"><style>.st0{fill:#19b054}</style><path class="st0" d="M44 0H4C1.8 0 0 1.8 0 4v31.1c0 2.2 1.8 4 4 4h10.1V46h-2.7c-.6 0-1 .4-1 1s.4 1 1 1h25.2c.6 0 1-.4 1-1s-.4-1-1-1h-2.7v-6.9H44c2.2 0 4-1.8 4-4V4c0-2.2-1.8-4-4-4zM31.9 46H16.1v-6.9H32V46h-.1zM46 35.1c0 1.1-.9 2-2 2H4c-1.1 0-2-.9-2-2v-3.5h44v3.5zm0-5.5H2V4c0-1.1.9-2 2-2h40c1.1 0 2 .9 2 2v25.6z"/><path class="st0" d="M26 34.4c0-.6-.4-1-1-1h-2c-.6 0-1 .4-1 1s4 .5 4 0z"/></svg>