<svg version="1.1" id="Layer_1" xmlns="http://www.w3.org/2000/svg" x="0" y="0" width="569.6" height="342" viewBox="0 0 569.6 342" xml:space="preserve"><style>.st0{fill:#22273f}.st1{fill:#19af54}</style><switch><g><path class="st0" d="M287.3 284.7c1.5-5.2 5-6.1 9.1-6.1 7.7.1 15.5 0 23.2 0 1.1 0 2.3 0 3.4.2 4.4.4 7.3 3.3 7.8 7.7.1 1.2.2 2.4.2 3.6v40.7c0 2.9-.1 3-3 3-5.4 0-4.9.6-4.9-4.9v-38.8c0-4.9-1.3-6.2-6.2-6.2h-19.8c-4.6 0-6 1.4-6 6V331c0 2.7-.1 2.8-2.7 2.8-5.7 0-5.1.7-5.1-5.1v-37.5c0-1.1 0-2.1-.1-3.2-.3-2.5-1.7-4-4.1-4-7.8-.1-15.6-.1-23.4 0-2.5 0-3.8 1.5-4.2 4-.1 1-.2 2-.2 3v39.8c0 3 0 3-2.9 3-5.7 0-4.8.5-4.9-4.9v-39c0-1.4.1-2.8.4-4.2.9-4.2 3.6-6.8 7.8-6.8 9.7-.2 19.5-.1 29.2-.1 3.3.1 5.1 2.2 6.4 5.9z"/><path class="st0" d="M325.9 335.3c-1.6 0-2.5-.1-3.3-.8-.9-.9-.9-2.1-.9-4.4v-40c0-4.1-.6-4.7-4.8-4.8h-19.8c-3.8 0-4.6.8-4.6 4.5v41.1c0 1.5 0 2.6-.8 3.4-.8.8-2 .8-3.4.8h-1.7c-2 0-3.1 0-4-.8-.9-.9-.9-2-.9-4.4V291c0-1 0-2-.1-3-.3-2.4-1.7-2.7-2.7-2.7-7.7-.1-15.6-.1-23.4 0-1.1 0-2.4.3-2.8 2.8-.1.9-.1 1.8-.1 2.8v39.8c0 1.7 0 2.8-.8 3.7-.8.8-1.9.8-3.6.8h-1.3c-2.2 0-3.4 0-4.2-.8-.8-.8-.8-1.9-.7-3.7v-40.8c0-1.3 0-2.9.4-4.5 1.1-5 4.4-7.9 9.2-8 10-.2 19.9-.1 29.2-.1 3.3 0 5.2 1.8 6.4 3.8 2.2-3.5 5.8-4.1 9.2-4 5.2.1 10.3.1 15.5 0h7.7c1.2 0 2.4 0 3.5.2 5 .5 8.5 3.9 9.1 8.9.1 1.3.2 2.5.2 3.8v40.7c0 1.5 0 2.8-.8 3.6-.8.8-2 .8-3.6.8h-1.4c-.1.2-.4.2-.7.2zm-58.7-52.8c4 0 7.9 0 11.9.1 3.1 0 5.2 2 5.6 5.3.1 1.1.1 2.2.1 3.3v38.9c0 1.1 0 2.2.1 2.4 0-.1 1-.1 1.9-.1h3V290c0-5.3 2.1-7.4 7.5-7.4h19.8c5.7 0 7.6 1.9 7.6 7.6v40c0 1.1 0 2.2.1 2.4.1-.1 1-.1 2-.1h1.4c.5 0 1.4 0 1.7-.1-.1 0-.1-1-.1-1.5v-40.7c0-1.1-.1-2.3-.2-3.4-.4-3.6-2.9-6-6.5-6.4-1.1-.1-2.2-.1-3.3-.1h-23.2c-4 0-6.5.8-7.7 5l-1.3 4.4-1.5-4.3c-1.2-3.5-2.7-4.9-5.1-4.9-9.3-.1-19.2-.1-29.1.1-3.4.1-5.7 2.1-6.4 5.7-.3 1.4-.3 2.8-.3 3.9v42.4c.4.1 1.3.1 2.1 0h2.9v-41.3c0-1.1 0-2.1.2-3.2.5-3.3 2.5-5.2 5.6-5.2 3.4-.4 7.3-.4 11.2-.4zm247.4 21.1c4.6 0 8.9.1 13.2-.1.7 0 1.5-.7 2-1.2 5.8-7.1 11.6-14.2 17.3-21.3 1.3-1.6 2.6-2.4 4.7-2.3 2.2.1 4.3 0 6.5 0l.3.6c-7.3 8.9-14.5 17.9-21.9 27l21.9 27c-3.9 1.8-9.7.6-12-2.4-5.5-6.8-11.1-13.7-16.7-20.5-.7-.8-2-1.4-3-1.4-4-.2-8.1-.1-12.3-.1v13c0 3.3-.1 6.5 0 9.8 0 1.6-.6 2.1-2.1 2.1-6.7-.1-5.7.7-5.7-5.4v-67.8c0-3.1 0-3.1 3.1-3.1 5.4 0 4.7-.5 4.7 4.6v41.5z"/><path class="st0" d="M554.5 335.5c-3.5 0-7.1-1.4-9-3.7l-3.3-4c-4.4-5.5-8.9-11-13.4-16.4-.4-.5-1.3-.9-1.9-.9-2.9-.1-5.8-.1-8.8-.1h-2v21.4c0 1.2-.3 2.1-.9 2.7-.6.6-1.5.9-2.7.9h-2.1c-2.3 0-3.4 0-4.3-.9-.8-.9-.8-2-.8-3.9v-69.9c0-1.8 0-2.9.8-3.7.8-.8 1.9-.8 3.7-.8h1.3c2.1 0 3.2 0 4.1.8.8.8.8 1.9.8 3.7v41.4h2c3.3 0 6.5 0 9.7-.1.1 0 .6-.3.9-.7 5.8-7.1 11.6-14.2 17.3-21.3 1.7-2.1 3.5-2.9 5.9-2.8 1.5.1 2.9.1 4.4 0h2.9l1.1 2.2-21.7 26.8 22.3 27.5-1.7.8c-1.3.6-3 1-4.6 1zm-33.2-28.1c1.9 0 3.8 0 5.6.1 1.5.1 3.1.9 4 2 4.5 5.4 9 10.9 13.4 16.4l3.3 4c1.7 2 5.4 3.1 8.5 2.5l-21.3-26.2 21.2-26.1c-1.4 0-2.9 0-4.3-.1s-2.4.4-3.5 1.7c-5.7 7.2-11.5 14.3-17.3 21.3-.7.8-1.9 1.7-3.1 1.8-3.2.1-6.4.1-9.8.1h-4.8V259h-4.8v73.5c0-.2 1.4-.1 2.8-.1h1.5c.4 0 .6 0 .6-.1v-.6c-.1-2.3 0-4.6 0-6.9v-17.4h8zm-407.4-6.8c0-4.3.1-8.5 0-12.7-.1-2.6-2-4-5.1-4H84.7c-2 0-4-.1-6 0s-2.8-.5-2.8-2.6.7-2.7 2.7-2.7c9.7.1 19.4 0 29.2 0 1.8 0 3.7 0 5.5.1 4.5.3 7.3 2.8 8.2 7.3.2 1.1.3 2.3.3 3.4V323c0 .6-.1 1.3-.1 1.9-.7 5.7-3.5 8.6-9.1 8.7-10.9.2-21.7.2-32.6 0-6-.1-9.1-3.7-9.2-9.7v-7.2c.1-5.5 2.8-9.1 8.2-10.1 8.4-1.6 16.9-2.9 25.3-4.4 3.2-.5 6.3-1 9.6-1.6zm0 5.5h-1.3c-9.7 1.6-19.4 3.2-29.1 4.9-3.2.6-4.8 2.7-4.9 6-.1 1.8 0 3.5 0 5.3 0 4.6 1.5 6.1 6.1 6.1h13.4c3.9 0 7.8 0 11.7-.2 2.6-.2 3.9-1.7 4-4.3.1-2.1 0-4.1 0-6.2.1-3.7.1-7.6.1-11.6z"/><path class="st0" d="M96.1 335.3c-5.5 0-10.9-.1-16.2-.2-6.5-.1-10.4-4.1-10.5-11.1v-7.3c.1-6.3 3.4-10.4 9.4-11.5 5.9-1.1 11.8-2.1 17.8-3.1l15.9-2.7v-2.6c0-3 .1-5.9-.1-8.8 0-.6-.1-2.6-3.6-2.6H78.9c-.9 0-2.3 0-3.3-.9s-1.1-2.2-1.1-3.2c0-.9.1-2.2 1-3.1.9-.9 2.2-1 3.2-1 6.5.1 13.1 0 19.6 0h9.5c1.9 0 3.8 0 5.6.1 5.2.4 8.5 3.4 9.5 8.4.2 1.3.4 2.5.4 3.6V323c0 .7-.1 1.4-.1 2.1-.8 6.6-4.3 9.8-10.5 9.9-5.6.3-11.1.3-16.6.3zm.6-52.8h12c3.9 0 6.4 2 6.5 5.4.1 2.9.1 5.9.1 8.9v5L97 305c-5.9 1-11.8 2-17.7 3.1-4.6.9-7 3.8-7 8.7v7.2c.1 5.4 2.7 8.2 7.8 8.3 10.6.2 21.5.2 32.5 0 4.8-.1 7.1-2.3 7.7-7.4.1-.6.1-1.2.1-1.7v-33.6c0-1-.1-2-.3-3.1-.7-3.8-3-5.8-6.9-6.1-1.8-.1-3.5-.1-5.4-.1H78.6c-.9-.1-1.1.2-1.1.2s-.2.2-.2 1.1c0 .9.2 1.1.2 1.1s.2.2 1.1.1c1.4-.1 2.8-.1 4.2 0h7.8c2.1-.3 4.1-.3 6.1-.3zM91.2 330h-6.5c-5.4 0-7.6-2.2-7.6-7.6V317c.2-4.1 2.3-6.7 6.1-7.4 7.3-1.3 14.7-2.5 22-3.8l7.2-1.2c.3-.1.6-.1 1 0h1.9v14.8c0 1.5 0 3.1-.1 4.6-.2 3.4-2.1 5.5-5.4 5.7-3.1.2-6.2.2-9.2.2H98c-2.2.1-4.5.1-6.8.1zm21.3-22.4l-6.8 1.1c-7.3 1.2-14.7 2.4-22 3.7-2.5.4-3.6 1.9-3.7 4.7-.1 1.3 0 2.6 0 3.9v1.3c0 3.8.9 4.7 4.7 4.7h16c3 0 6 0 9-.2 1.2-.1 2.6-.5 2.7-3 .1-1.5.1-3 0-4.4v-10l.1-1.8zm107.1-7c0-4.3.1-8.5 0-12.7-.1-2.6-2-4-5.1-4h-24.1c-2 0-4-.1-6 0s-2.8-.5-2.8-2.6.7-2.7 2.7-2.7c9.7.1 19.4 0 29.2 0 1.8 0 3.7 0 5.5.1 4.5.3 7.4 2.8 8.2 7.3.3 1.4.3 2.8.3 4.2v31.9c0 .9 0 1.8-.1 2.8-.7 5.7-3.6 8.6-9.4 8.7-10.7.2-21.4.2-32.2 0-6.1-.1-9.3-3.6-9.4-9.8v-7.2c.1-5.5 2.8-9.1 8.2-10.1 8.4-1.6 16.9-2.9 25.3-4.4 3.3-.4 6.4-.9 9.7-1.5zm0 5.5h-1.3c-9.6 1.6-19.3 3.2-28.9 4.9-3.3.6-5 2.8-5.1 6.1-.1 1.8 0 3.7 0 5.5 0 4.2 1.5 5.8 5.8 5.9 3.7.1 7.4 0 11.1 0 4.4 0 8.8.1 13.2 0 3.9-.1 5.3-1.6 5.3-5.4v-8.5c-.1-2.8-.1-5.6-.1-8.5z"/><path class="st0" d="M201.8 335.3c-5.4 0-10.7 0-15.9-.1-6.8-.1-10.7-4.2-10.8-11.2v-7.3c.1-6.3 3.4-10.4 9.4-11.5 5.9-1.1 11.8-2.1 17.8-3.1l15.9-2.7v-2.6c0-3 .1-5.9-.1-8.8 0-.6-.1-2.6-3.6-2.6h-29.9c-.9 0-2.3 0-3.3-.9s-1.1-2.2-1.1-3.2c0-.9.1-2.2 1-3.1.9-.9 2.2-1 3.2-1 6.5.1 13.1 0 19.6 0h9.5c1.9 0 3.8 0 5.6.1 5.2.4 8.6 3.4 9.5 8.4.2 1.3.4 2.8.4 4.5v31.9c0 1 0 2-.2 2.9-.8 6.5-4.4 9.9-10.8 10-5.4.3-10.8.3-16.2.3zm.6-52.8h12c3.9 0 6.4 2 6.5 5.4.1 2.9.1 5.9.1 8.9v5l-18.3 3.1c-5.9 1-11.8 2-17.7 3.1-4.6.9-7 3.8-7 8.7v7.2c.1 5.5 2.8 8.3 8 8.3 10.4.2 21.2.2 32.1 0 4.9-.1 7.3-2.3 8-7.5.1-.9.1-1.7.1-2.6v-31.9c0-1.5-.1-2.8-.3-4-.7-3.8-3-5.8-6.9-6.1-1.8-.1-3.7-.1-5.4-.1h-29.2c-1-.1-1.1.2-1.1.2s-.2.2-.2 1.1c0 .9.2 1.1.2 1.1s.2.2 1.1.1c1.4-.1 2.8-.1 4.2 0h13.8zm6.2 47.5H190c-5-.1-7.1-2.3-7.2-7.3v-5.6c.1-4.1 2.4-6.8 6.3-7.5 7.1-1.3 14.3-2.4 21.4-3.6l7.5-1.2c.4-.1.7 0 1 0h2v18.5c-.1 4.6-2.1 6.7-6.7 6.8-1.9-.1-3.8-.1-5.7-.1zm-7.5-2.9h3.9c3.1 0 6.2 0 9.2-.1 3-.1 3.9-.9 3.9-4v-15.6l-7.1 1.2c-7.1 1.2-14.3 2.4-21.4 3.6-2.6.5-3.8 2-3.9 4.8-.1 1.5 0 3 0 4.5v1c0 3.5.9 4.4 4.4 4.4h7.8l3.2.2zm238.4-17.4V289c0-6.9 3.2-10.3 10.1-10.3 10.1-.1 20.2-.1 30.2 0 6.8.1 10 3.4 10 10.2.1 14.1 0 28.3.1 42.4 0 1.9-.6 2.5-2.5 2.5-6.3-.1-5.3.7-5.3-5.3v-37.7c0-1 0-2-.2-3-.5-2.6-1.9-3.9-4.5-3.9-8.4-.1-16.9-.1-25.3 0-2.8 0-4.3 1.4-4.6 4.3-.1.9-.1 1.8-.1 2.8v39.8c0 3 0 3-3 3-5.7 0-4.8.5-4.8-4.9-.1-6.4-.1-12.8-.1-19.2z"/><path class="st0" d="M487.6 335.3h-2.1c-2.1 0-3.2 0-4.1-.9-.8-.8-.8-1.9-.7-3.7v-39.8c0-.9 0-1.9-.2-2.7-.3-2-1.2-2.7-3.1-2.7-8.4-.1-16.9-.1-25.3 0-2.1 0-2.9.8-3.2 3-.1.8-.1 1.7-.1 2.6v39.8c0 1.7 0 2.8-.8 3.6-.8.8-1.9.8-3.6.8h-1.3c-2.2 0-3.4 0-4.2-.8-.8-.8-.8-1.9-.8-3.6v-41.7c0-7.8 3.8-11.7 11.5-11.8 10.3-.1 20.4-.1 30.3 0 7.5.1 11.4 4 11.4 11.7v42.4c0 .9-.1 2.1-1 3-.8.7-1.9.8-2.7.8zm-4.1-3c.4.1 1.2.1 1.9.1h2c.7 0 .9-.1.9-.1s.1-.2.1-.9V289c0-6.1-2.6-8.7-8.6-8.8-9.8-.1-20-.1-30.2 0-6.1.1-8.6 2.7-8.7 8.9v43.1c.4.1 1.3.1 2.1 0h2.9v-41.3c0-1 0-2 .1-2.9.6-4.5 3.6-5.5 6-5.5 8.5-.1 16.9-.1 25.4 0 3.3 0 5.3 1.8 5.9 5.1.2 1.1.2 2.2.2 3.2v41.5z"/><path class="st1" d="M16.2 328.6H59c2.7 0 3.9 1.8 2.7 4.3-.3.5-1.4.9-2.1.9-5.6.1-11.2 0-16.8 0H11.1c-2.7 0-2.9-.2-2.9-2.9v-70.5c0-2.6.2-2.8 2.8-2.8 5.8 0 5.2-.6 5.2 5v66z"/><path class="st1" d="M50.6 335.3H11.2c-3.5 0-4.3-.8-4.3-4.3v-70.5c0-1.3 0-2.6.8-3.4.8-.8 2.1-.9 3.3-.8h1.6c2.2 0 3.4 0 4.2.8.9.9.8 2 .8 4.1v66H59c1.8 0 3.3.7 4.1 1.9.8 1.2.8 2.8 0 4.4-.6 1.2-2.4 1.7-3.4 1.7-3 .1-6 .1-9.1.1zM10.9 259c-.4 0-1.1 0-1.3.1.1 0 .1 1 .1 1.3v70.5c0 .4 0 1.4.1 1.6 0-.1 1-.1 1.4-.1h48.6c.3 0 .8-.2.9-.3.2-.5.3-1.1.1-1.5-.2-.4-.8-.6-1.6-.6H14.9v-69c0-.9 0-1.9-.1-2.2-.1.1-1.1.1-2.1.1h-1.6c-.1.1-.2.1-.2.1z"/><path class="st0" d="M349.1 295.9v-35.6c0-2.7.1-2.8 2.7-2.7 5.7 0 5-.7 5 5v63.5c0 2 .5 2.6 2.6 2.6 13.5-.1 27 0 40.5 0 2.6 0 3.9 2 2.6 4.3-.3.6-1.5.9-2.3.9-11.4.1-22.9 0-34.3 0-4.8 0-9.5-.1-14.3 0-2 0-2.5-.7-2.5-2.6v-35.4z"/><path class="st0" d="M351.4 335.3c-.9 0-2-.1-2.8-.9-.9-.9-1-2.1-1-3.1.1-8.8 0-17.7 0-26.5v-44.4c0-1.5 0-2.6.8-3.4.8-.8 1.9-.8 3.4-.8h1.6c2.1 0 3.2 0 4 .8.9.9.8 2 .8 4.1v65c0 .9.1 1.1.1 1.1s.2.1 1 .1h.1c10.4-.1 20.9-.1 31.3-.1h9.2c1.8 0 3.2.7 4 2 .8 1.3.7 2.9-.1 4.4-.7 1.3-2.6 1.6-3.6 1.6h-48.5c-.1.1-.2.1-.3.1zm-.8-3s.2.1.9.1c3.4-.1 6.8-.1 10.2-.1H400c.5 0 1.1-.2 1.2-.3.2-.5.3-1 .1-1.4-.2-.4-.8-.6-1.5-.6h-40.5c-1.1 0-2.2-.1-3.1-.9-.8-.8-1-2-.9-3.1 0-8.8.1-30 0-63.5V261c0-.9 0-1.9-.1-2.2 0 .1-1 .1-1.9.2h-3v72.2c.2.9.3 1.1.3 1.1zm-205.1-48.4v38c0 .8 0 1.7.2 2.5.4 2.5 1.5 3.8 4 3.9 4.2.2 8.5.1 12.8.2h2.6c2.6 0 3.9 2.2 2.6 4.4-.2.4-.9.8-1.3.8-6.8 0-13.6.2-20.4-.2-5.3-.4-8-3.8-8.1-9.2-.1-6.6 0-13.2 0-19.8v-33.9c0-2 .6-2.6 2.6-2.6 6 .2 5.3-.7 5.3 5.2 0 5.4 0 5.4 5.5 5.4 4 0 8 .1 11.9 0 2.1-.1 2.2 1 2.2 2.7 0 1.7-.2 2.7-2.3 2.6h-17.6z"/><path class="st0" d="M156.1 335.3c-3.4 0-6.9-.1-10.3-.3-5.9-.4-9.3-4.3-9.4-10.6-.1-4.8-.1-9.5 0-14.3v-39.4c0-1 .1-2.2 1-3.1.9-.9 2.2-1 3-.9h2c2 0 3.1 0 3.9.9.8.8.8 2 .8 4v1.7c0 4 0 4 4 4H163c1.2-.1 2.1.2 2.8.9 1 .9 1 2.3 1 3.2 0 1.2-.1 2.3-1 3.2-.6.6-1.6 1-2.8.9-4.1-.1-8.1-.1-12.3 0h-3.6v36.6c0 .8 0 1.6.1 2.3.3 2.2 1.2 2.6 2.6 2.7 3 .1 6 .2 9 .2h6.3c1.8 0 3.2.8 4 2.1.8 1.3.7 2.9-.1 4.4-.5 1-1.9 1.5-2.9 1.5h-4.9c-1.8-.1-3.5 0-5.1 0zm-16.8-65.7s-.1.2-.1 1c.1 8.1.1 16.3 0 24.4v29.2c0 3.3 1.3 7.4 6.7 7.8 5 .3 10.1.3 15 .3h5.3c.4-.7.5-1.2.2-1.6-.2-.4-.8-.7-1.5-.7h-6.2c-3.1 0-6.1 0-9.2-.2-3.1-.2-4.9-1.9-5.3-5.1-.1-.9-.2-1.8-.2-2.7v-39.4h18.8c.5 0 .7-.1.7-.1s.1-.2.1-1.1c0-.7 0-1.1-.1-1.2h-.6c-2.8.1-5.6.1-8.4 0h-3.6c-6.2 0-6.9-.6-6.9-6.8v-1.8c0-.9 0-1.9-.1-2.1 0 .1-.9.1-1.8.1h-2c-.6-.1-.8 0-.8 0zm283.2 36.5c0 8.4-.1 16.7 0 25.1 0 2.1-.7 2.7-2.7 2.6-5.9-.1-5.1.6-5.1-5.1v-46.8c0-3.2 0-3.2 3.1-3.2 5.5 0 4.6-.4 4.6 4.6.2 7.6.1 15.2.1 22.8z"/><path class="st0" d="M420.1 335.3h-2c-2 0-3.2 0-4-.9-.8-.8-.8-1.9-.8-3.9V282c0-1.9 0-3 .8-3.8.8-.8 1.9-.8 3.7-.8h1.2c2.2 0 3.3 0 4.1.8.8.8.8 1.9.7 3.5V313c0 6.1 0 12.2.1 18.3 0 .9-.1 2.2-1 3.1-.7.7-1.9.9-2.8.9zm-4.1-55.1c.2 0 .2.9.2 1.7v48.6c0 .9 0 1.8.1 2 0-.1 1-.1 1.9-.1h1.8c.9 0 1.1-.1 1.1-.1s.2-.2.1-1.1c-.1-6.1-.1-12.2-.1-18.3v-32.8c-.4-.1-1.2 0-2 0h-1.3c-.7 0-1.6 0-1.8.1zm-1.3-20v-6c0-1.2.5-1.8 1.8-1.8 7.4.1 5.9-.9 6 5.6.1 2.8 0 5.5 0 8.3 0 1.2-.5 1.9-1.7 1.8h-.4c-6.7-.1-5.5.7-5.6-5.4-.1-.8-.1-1.7-.1-2.5z"/><path class="st0" d="M417.6 269.6c-1.8 0-2.8-.1-3.5-.8-.8-.8-.8-1.9-.8-3.8v-10.8c0-1.1.3-1.9.8-2.5.6-.6 1.4-.8 2.4-.8h2.6c2.2 0 3.4 0 4.2.8.8.8.8 1.9.7 3.5v11c0 1.1-.3 1.9-.8 2.5-.6.6-1.3.8-2.3.8l-.4-1.4v1.4h-2c-.4.1-.7.1-.9.1zm-1.3-15.8c-.2 0-.2.1-.2.4V265c0 .8 0 1.6.1 1.8 0-.1 1.1-.1 2.2-.1h2.5c.2.1.3 0 .3-.4v-12.4h-4.6c-.2-.1-.2-.1-.3-.1z"/><path class="st1" d="M274.6 39.3V2.9l-48.4 65.8-26.7 114 73.8 45.5v-25.3L225 172.2l22.1-94z"/><path d="M297.2 39.3V2.9l48.4 65.8 26.8 114-73.8 45.5v-25.3l48.2-30.7-22.1-94z"/></g></switch></svg>