<svg id="Layer_1" xmlns="http://www.w3.org/2000/svg" width="48" height="48" viewBox="0 0 48 48"><style>.st0{fill:#19af54}</style><path class="st0" d="M44 0H4C1.8 0 0 1.8 0 4v40c0 2.2 1.8 4 4 4h40c2.2 0 4-1.8 4-4V4c0-2.2-1.8-4-4-4zm2 44c0 1.1-.9 2-2 2H4c-1.1 0-2-.9-2-2V4c0-1.1.9-2 2-2h40c1.1 0 2 .9 2 2v40z"/><path class="st0" d="M9.6 8.5h-2c-.6 0-1 .4-1 1s.4 1 1 1h2.1c.6 0 1-.4 1-1-.1-.5-.5-1-1.1-1zm30.8 0H14.9c-.6 0-1 .4-1 1s.4 1 1 1h25.5c.6 0 1-.4 1-1 0-.5-.4-1-1-1zM9.6 18.2h-2c-.6 0-1 .4-1 1s.4 1 1 1h2.1c.6 0 1-.4 1-1-.1-.6-.5-1-1.1-1zm30.8 0H14.9c-.6 0-1 .4-1 1s.4 1 1 1h25.5c.6 0 1-.4 1-1s-.4-1-1-1zM9.6 27.8h-2c-.6 0-1 .4-1 1s.4 1 1 1h2.1c.6 0 1-.4 1-1-.1-.5-.5-1-1.1-1zm30.8 0H14.9c-.6 0-1 .4-1 1s.4 1 1 1h25.5c.6 0 1-.4 1-1 0-.5-.4-1-1-1zM9.6 37.5h-2c-.6 0-1 .4-1 1s.4 1 1 1h2.1c.6 0 1-.4 1-1-.1-.6-.5-1-1.1-1zm30.8 0H14.9c-.6 0-1 .4-1 1s.4 1 1 1h25.5c.6 0 1-.4 1-1s-.4-1-1-1z"/></svg>