<svg xmlns="http://www.w3.org/2000/svg" width="48" height="48" viewBox="0 0 48 48"><path d="M24 10.7c-7.3 0-13.3 6-13.3 13.3s6 13.3 13.3 13.3 13.3-6 13.3-13.3-6-13.3-13.3-13.3zm0 24.6c-6.2 0-11.3-5.1-11.3-11.3S17.8 12.7 24 12.7 35.3 17.8 35.3 24 30.2 35.3 24 35.3zM19.9 7.7c.3 0 .6-.1.8-.4L24 2.7l3.3 4.6c.3.4.9.6 1.4.2.4-.3.6-.9.2-1.4L24.8.4c-.2-.2-.5-.4-.8-.4s-.6.2-.8.4l-4.1 5.7c-.3.4-.2 1.1.2 1.4.2.2.4.2.6.2zm7.4 33L24 45.3l-3.3-4.6c-.3-.4-.9-.6-1.4-.2-.4.3-.6.9-.2 1.4l4.1 5.7c.2.3.5.4.8.4s.6-.2.8-.4l4.1-5.7c.3-.4.2-1.1-.2-1.4-.5-.4-1.1-.2-1.4.2zm6.2-30.8L39 9l-.9 5.6c-.1.5.3 1.1.8 1.1h.2c.5 0 .9-.3 1-.8L41.2 8c.1-.4 0-.7-.2-1-.2-.2-.6-.3-.9-.3l-6.9 1.1c-.6.2-.9.7-.9 1.2.1.6.6 1 1.2.9zm-19 28.2L9 39l.9-5.6c.1-.5-.3-1.1-.8-1.1-.5-.1-1.1.3-1.1.8L6.9 40c-.2.4-.1.7.1 1 .2.2.4.3.7.3h.2l6.9-1.1c.5-.1.9-.6.8-1.1 0-.7-.5-1.1-1.1-1zm33.1-14.9l-5.7-4.1c-.4-.3-1.1-.2-1.4.2s-.2 1.1.2 1.4l4.6 3.3-4.6 3.3c-.4.3-.6.9-.2 1.4.2.3.5.4.8.4.2 0 .4-.1.6-.2l5.7-4.1c.3-.2.4-.5.4-.8s-.2-.6-.4-.8zM7.3 27.3L2.7 24l4.6-3.3c.4-.3.6-.9.2-1.4-.3-.4-.9-.6-1.4-.2L.4 23.2c-.2.2-.4.5-.4.8s.2.6.4.8l5.7 4.1c.2.1.4.2.6.2.3 0 .6-.1.8-.4.4-.5.2-1.1-.2-1.4zm32.8 5.9c-.1-.5-.6-.9-1.1-.8-.5.1-.9.6-.8 1.1L39 39l-5.6-.9c-.5-.1-1.1.3-1.1.8-.1.5.3 1.1.8 1.1l6.9 1.1h.2c.3 0 .5-.1.7-.3s.3-.6.3-.9l-1.1-6.7zM7.9 14.8c.1.5.5.8 1 .8h.2c.5-.1.9-.6.8-1.1L9 9l5.6.9c.4.1 1-.3 1.1-.9.1-.5-.3-1.1-.8-1.1l-7-1.1c-.3-.1-.6 0-.9.2-.2.3-.3.6-.2.9l1.1 6.9z" fill="#19af54"/></svg>