<svg xmlns="http://www.w3.org/2000/svg" width="48" height="47.9" viewBox="0 0 48 47.9"><path d="M47.4 6.4c-.1-.3-.4-.6-.7-.6-.3-.1-.7 0-.9.3l-5.6 5.6-3.8-3.8L42 2.3c.2-.2.3-.6.3-.9-.1-.3-.3-.6-.6-.7-1.2-.5-2.4-.7-3.6-.7-2.6 0-5.1 1-7 2.9-1.7 1.7-2.8 4-2.9 6.5-.1 2-.9 3.9-2.2 5.2L14.5 26.1c-1.3 1.3-3.1 2.1-5.2 2.2-2.4.1-4.7 1.1-6.5 2.9C.2 33.9-.7 38 .6 41.6c.1.3.4.6.7.6.3.1.7 0 .9-.3l5.6-5.6 3.8 3.8L6 45.7c-.2.2-.3.6-.3.9.1.3.3.6.6.7 5 1.6 8.6-.4 10.5-2.3 1.7-1.7 2.8-4 2.9-6.5.1-2 .9-3.9 2.2-5.2L33.5 22c1.3-1.3 3.1-2.1 5.2-2.2 2.4-.1 4.7-1.1 6.5-2.9 2.6-2.7 3.5-6.8 2.2-10.5zm-3.7 9.1c-1.4 1.4-3.2 2.2-5.2 2.3-2.5.1-4.8 1.1-6.5 2.8L20.5 32.1c-1.7 1.7-2.6 4-2.8 6.5-.1 1.9-.9 3.8-2.3 5.2S12 46 9.9 46c-.4 0-.8 0-1.2-.1l5.1-5.1c.2-.2.3-.4.3-.7s-.1-.5-.3-.7l-5.2-5.2c-.4-.4-1-.4-1.4 0l-5.1 5.1c-.4-2.4.4-5 2.2-6.8 1.4-1.4 3.2-2.2 5.2-2.3 2.5-.1 4.8-1.1 6.5-2.8L27.5 16c1.7-1.7 2.6-4 2.8-6.5.1-1.9.9-3.8 2.3-5.2C34 2.8 36 2 38.1 2c.4 0 .8 0 1.2.1l-5.1 5.1c-.2.2-.3.4-.3.7 0 .3.1.5.3.7l5.2 5.2c.4.4 1 .4 1.4 0l5.1-5.1c.4 2.5-.4 5-2.2 6.8z" fill="#19af54"/></svg>