<svg id="Layer_1" xmlns="http://www.w3.org/2000/svg" width="48" height="41.4" viewBox="0 0 48 41.4"><style>.st0{fill:#19af54}</style><path class="st0" d="M44 8h-3.8l-2-4.9C37.6 1.6 36.1.6 34.5.6H23.8c-1.6 0-3.1 1-3.7 2.5l-2 4.9h-4.8V4.9c0-.6-.4-1-1-1H6.4c-.6 0-1 .4-1 1V8H4c-2.2 0-4 1.8-4 4v25.4c0 2.2 1.8 4 4 4h40c2.2 0 4-1.8 4-4V12c0-2.2-1.8-4-4-4zM21.9 3.9c.3-.8 1-1.2 1.9-1.2h10.7c.8 0 1.5.5 1.9 1.2L38 8H20.3l1.6-4.1zm-14.5 2h3.9V8H7.4V5.9zM46 37.4c0 1.1-.9 2-2 2H4c-1.1 0-2-.9-2-2V12c0-1.1.9-2 2-2h40c1.1 0 2 .9 2 2v25.4z"/><path class="st0" d="M28.1 12.4c-6.8 0-12.3 5.5-12.3 12.3S21.4 37 28.1 37s12.3-5.5 12.3-12.3-5.5-12.3-12.3-12.3zm0 22.6c-5.7 0-10.3-4.6-10.3-10.3s4.6-10.3 10.3-10.3S38.4 19 38.4 24.7 33.8 35 28.1 35z"/><path class="st0" d="M28.1 18.1c-3.7 0-6.6 3-6.6 6.6s3 6.6 6.6 6.6c3.7 0 6.6-3 6.6-6.6s-2.9-6.6-6.6-6.6zm0 11.2c-2.5 0-4.6-2.1-4.6-4.6s2.1-4.6 4.6-4.6 4.6 2.1 4.6 4.6-2 4.6-4.6 4.6zM10.9 14.8H7.7c-.6 0-1 .4-1 1s.4 1 1 1h3.2c.6 0 1-.4 1-1s-.4-1-1-1z"/></svg>