<svg xmlns="http://www.w3.org/2000/svg" width="48" height="49" viewBox="0 0 48 49"><path d="M28.7 10.6V1c0-.6-.4-1-1-1h-7.5c-.6 0-1 .4-1 1v9.6c-7.9 2.1-13.8 9.3-13.8 17.9 0 .6.4 1 1 1h8.8c.5 4.4 4.2 7.8 8.7 7.8s8.2-3.4 8.7-7.8h8.8c.6 0 1-.4 1-1 .1-8.6-5.7-15.8-13.7-17.9zM21.3 2h5.5v8.2c-2.7-.4-5.2 0-5.5 0V2zM24 35.3c-3.4 0-6.2-2.5-6.7-5.8h13.5c-.6 3.3-3.4 5.8-6.8 5.8zM7.5 27.5c.5-7.5 6-13.7 13.2-15.2.3-.1 3.8-.7 6.7 0 7.2 1.5 12.7 7.7 13.2 15.2H7.5zM24 40.8c-.6 0-1 .4-1 1V47c0 .6.4 1 1 1s1-.4 1-1v-5.2c0-.6-.4-1-1-1zm-9.1-3.2l-3.7 3.7c-.4.4-.4 1 0 1.4.2.2.5.3.7.3.3 0 .5-.1.7-.3l3.7-3.7c.4-.4.4-1 0-1.4-.3-.4-1-.4-1.4 0zm18.2 0c-.4-.4-1-.4-1.4 0s-.4 1 0 1.4l3.7 3.7c.2.2.5.3.7.3.3 0 .5-.1.7-.3.4-.4.4-1 0-1.4l-3.7-3.7z" fill="#19af54"/></svg>