<svg xmlns="http://www.w3.org/2000/svg" width="48" height="44.8" viewBox="0 0 48 44.8"><path d="M48 36.7c0-.2-.1-.4-.2-.6l-3.8-8v-25c0-.6-.4-1-1-1H4.9c-.6 0-1 .4-1 1v25L0 36.2v3.6c0 2.2 1.8 4 4 4h40c2.2 0 4-1.8 4-4v-3.1c0 .1 0 .1 0 0zM5.9 17.8h5.7c.4 0 .8-.3.9-.7l1.9-5.3 1.6 5.3c.1.4.5.7 1 .7h2.3l2 5.5c.1.4.5.7.9.7h.1c.4 0 .8-.3.9-.8l2.1-9.5 1.6 3.6c.2.4.5.6.9.6h2.7l1.4 4.5c.1.4.5.7.9.7s.8-.3 1-.7l1.6-4.5H42v9.6H5.9v-9.7zM42 4.2v11.6h-7.2c-.4 0-.8.3-.9.7l-.9 2.3-.7-2.3c-.1-.4-.5-.7-1-.7h-2.8L26.1 10c-.2-.4-.6-.6-1-.6s-.8.4-.9.8l-2 9.2-1.1-3c-.1-.4-.5-.7-.9-.7h-2.3l-2.3-7.4c-.1-.4-.5-.7-.9-.7s-.8.3-1 .7L11 15.8H6V4.2h36zM5.6 29.4h36.8l3 6.3H2.6l3-6.3zM46 39.8c0 1.1-.9 2-2 2H4c-1.1 0-2-.9-2-2v-2.1h44v2.1z" fill="#19af54"/></svg>