<svg id="Layer_1" xmlns="http://www.w3.org/2000/svg" width="48" height="48" viewBox="0 0 48 48"><style>.st0{fill:#19b054}</style><path class="st0" d="M16.7 11c-1.5 0-2.9.6-4 1.7-2.2 2.2-2.2 5.8 0 8 1.1 1.1 2.5 1.7 4 1.7s2.9-.6 4-1.7c2.2-2.2 2.2-5.8 0-8-1.1-1.1-2.5-1.7-4-1.7zm2.6 8.3c-1.4 1.4-3.8 1.4-5.2 0s-1.4-3.8 0-5.2c.7-.7 1.6-1.1 2.6-1.1s1.9.4 2.6 1.1c1.4 1.4 1.4 3.7 0 5.2z"/><path class="st0" d="M47.8 22.5l-6.1-7.2C39.8 13 37 11.7 34 11.7c-2 0-4 .6-5.6 1.7C22 5 11.9 0 1.2 0H1C.4 0 0 .4 0 1c-.1 10.7 4.9 20.9 13.4 27.4-1.3 1.9-1.9 4.2-1.7 6.5.2 2.7 1.5 5.1 3.5 6.8l7.2 6.1c.2.2.4.2.6.2.6 0 1-.4 1-1v-.2c-.2-5.8-.4-12.3-.3-13.8l9.2-9.2h1.3c3.8 0 12.6.4 12.6.4.4 0 .8-.2.9-.6.4-.4.3-.8.1-1.1zM10.3 3.3c-.1 1.8-.9 3.5-2.2 4.8s-3 2.1-4.8 2.2C2.5 7.7 2.1 4.9 2 2c2.9.1 5.7.5 8.3 1.3zm24 18.5c-1.8 0-2.3 0-2.6.5l-9.5 9.5-.1.1c-.3.4-.6.6-.1 13l-5.5-4.6c-1.6-1.4-2.7-3.3-2.8-5.5-.2-2.1.5-4.2 1.9-5.9.2-.2.3-.5.2-.8 0-.3-.2-.5-.4-.7-5.3-3.8-9.2-9.1-11.4-15.1 2.1-.3 4-1.2 5.6-2.7C11.1 8 12 6.1 12.3 4c6 2.2 11.3 6.1 15.1 11.4.2.2.4.4.7.4.3 0 .6 0 .8-.2 1.4-1.2 3.3-1.9 5.2-1.9 2.4 0 4.6 1 6.2 2.9l4.6 5.5c-3-.2-7.9-.3-10.6-.3z"/><path class="st0" d="M38.2 28.9c-.9-.9-2-1.4-3.1-1.4-1.5 0-3.1.8-4.9 2.7-1.4 1.4-2.2 2.6-2.5 3.7-.4 1.5 0 3 1.3 4.3 2.3 2.3 12.7 5.5 13.8 5.8h.3c.6 0 1-.4 1-1 0-.2 0-.3-.1-.5-.6-1.7-3.6-11.4-5.8-13.6zm-7.8 7.9c-.8-.8-1-1.5-.7-2.3.2-.8.9-1.8 2-2.9 1.4-1.4 2.5-2.1 3.5-2.1.6 0 1.1.3 1.7.8 1.3 1.3 3.4 6.9 4.8 11.2-4.4-1.3-10.1-3.5-11.3-4.7z"/></svg>