<svg id="Layer_1" xmlns="http://www.w3.org/2000/svg" width="48" height="48" viewBox="0 0 48 48"><style>.st0{fill:#19af54}</style><path class="st0" d="M12.4 6c.8 0 1.5.5 1.9 1.2.2.4.5.6.9.6.1 0 .3 0 .4-.1.5-.2.7-.8.5-1.3C15.4 4.9 14 4 12.4 4c-.6 0-1 .4-1 1s.4 1 1 1zM8.1 35.8c-.6 0-1 .4-1 1s.4 1 1 1c.8 0 1.5.5 1.9 1.2.2.4.5.6.9.6.1 0 .3 0 .4-.1.5-.2.7-.8.5-1.3-.7-1.5-2.1-2.4-3.7-2.4z"/><path class="st0" d="M47.2 20.9c-1.3-2.8-4.2-4.6-7.3-4.6-4 .2-5.6 2.2-6.4 3.1l-13.7-8.1c.1-.2 1.5-3-.1-6.8C18.3 1.8 15.5 0 12.4 0c-1.2 0-2.4.3-3.5.8-2 1-3.4 2.6-4.2 4.7-.7 2-.6 4.2.4 6.2 1 2.1 3 3.7 5.2 4.3L8.2 31.8h-.1c-1.2 0-2.4.3-3.5.8-4 1.9-5.7 6.8-3.8 10.8C2.2 46.2 5 48 8.1 48c1.2 0 2.4-.3 3.5-.8 3.7-1.8 5.4-6.1 4.1-9.9l17.4-8.4c1.5 2.3 4 3.7 6.8 3.7 1.2 0 2.4-.3 3.5-.8 4.1-2 5.7-6.9 3.8-10.9zM6.9 10.8c-.7-1.5-.8-3.1-.3-4.7s1.6-2.8 3.1-3.5c.8-.4 5.3-2 8.1 2.8.7 1.5.8 3.1.3 4.7-.3.7-1.7 4.4-6.4 4.1-2-.2-3.9-1.5-4.8-3.4zm3.9 34.6c-4.1 1.8-7.1-.7-8.1-2.8-1.5-3-.2-6.7 2.8-8.1.8-.4 1.7-.6 2.7-.6.3 0 3.8 0 5.5 3.4 1.3 2.9.1 6.6-2.9 8.1zm21.4-18.3l-17.4 8.4v-.1c0-.1-1.9-2.6-4.4-3.3h-.2l2.1-15.8h.1c4.6-.2 6.3-3.1 6.4-3.1l13.7 8.1c-1.3 2.7-.3 5.6-.3 5.8zm10.4 2.8c-.8.4-1.7.6-2.7.6-2.4 0-4.5-1.3-5.5-3.4-.1-.2-2.4-5.1 2.8-8.1.8-.4 5.4-2.1 8.1 2.8 1.6 3 .3 6.7-2.7 8.1z"/><path class="st0" d="M39.9 20.4c-.6 0-1 .4-1 1s.4 1 1 1c.8 0 1.5.5 1.9 1.2.2.4.5.6.9.6.1 0 .3 0 .4-.1.5-.2.7-.8.5-1.3-.7-1.6-2.1-2.4-3.7-2.4z"/></svg>