<svg xmlns="http://www.w3.org/2000/svg" viewBox="0 0 1000 1000" fill="#19af54"><path d="M500 71.6c58 0 114.2 11.3 166.9 33.6 50.8 21.5 96.7 52.3 136 91.7l1.2 1.2 1.3 1.2.8.7c38.1 39.3 68 84.5 89.1 134.5 22.1 52.5 33.2 108.1 33.2 165.4 0 45.1-7.1 89.9-21.1 133.1l-.1.2-.1.2c-12.2 38.2-30.6 75.3-54.8 110.1l-10.9 15.8v169.1H499.9c-58.1 0-114.3-11.3-166.9-33.5-51-21.5-96.6-52.3-135.4-91.7l-14.9-15c-32.6-36-58.8-76.7-77.8-121.5C82.3 613.9 71 557.8 71 500c0-57.6 11.4-113.7 33.9-166.4 21.7-50.9 52.8-96.8 92.3-136.5l14.9-14.9c35.7-32.2 76.3-58.1 120.7-76.8C386 82.9 442.2 71.6 500 71.6m0-61.2c-135.4 0-257.9 54.8-346.4 143.2l.6.3C65.4 242.5 10 364.8 10 499.9c0 135.3 55.4 257.9 143.6 346.4h.6c88 89.1 210.5 143.3 345.9 143.3h365.2c20.9 0 37.7-16.4 37.7-37.7V778.3c26.7-38.6 48.4-81.1 62.9-126.5 15.5-47.8 24.1-98.9 24.1-152 0-134.1-54.4-255.5-141.2-344.3l-2.4-2.1c-88.7-88.2-210.7-143-346.4-143z"/><path d="M744.9 316.6H255c-16.9 0-30.6-13.7-30.6-30.6s13.7-30.6 30.6-30.6h490c16.9 0 30.6 13.7 30.6 30.6s-13.7 30.6-30.7 30.6zm0 183.7H255c-16.9 0-30.6-13.7-30.6-30.6s13.7-30.6 30.6-30.6h490c16.9 0 30.6 13.7 30.6 30.6s-13.7 30.6-30.7 30.6zm0 183.8H255c-16.9 0-30.6-13.7-30.6-30.6s13.7-30.6 30.6-30.6h490c16.9 0 30.6 13.7 30.6 30.6s-13.7 30.6-30.7 30.6z"/></svg>