<svg version="1.1" id="Layer_1" xmlns="http://www.w3.org/2000/svg" x="0" y="0" width="774.7" height="342" viewBox="0 0 774.7 342" xml:space="preserve"><style>.st0{fill:#19af54}</style><switch><g><path d="M410.7 95.4c2.1-7.5 7.1-8.8 13.1-8.7 11.1.1 22.1 0 33.2.1 1.6 0 3.3.1 4.9.2 6.2.6 10.4 4.8 11.2 11 .2 1.7.3 3.4.3 5.2v58.2c0 4.1-.2 4.3-4.3 4.3-7.6 0-7 .8-7-7v-55.4c0-7-1.8-8.8-8.8-8.8H425c-6.5 0-8.6 2.1-8.6 8.5v58.8c0 3.8-.2 4-3.9 4-8.1-.1-7.3 1-7.3-7.3v-53.6c0-1.5 0-3-.2-4.6-.4-3.5-2.4-5.7-5.9-5.7-11.2-.1-22.3-.1-33.5 0-3.5 0-5.5 2.1-6 5.7-.2 1.4-.2 2.8-.2 4.2v56.9c0 4.2-.1 4.3-4.2 4.3-8.2 0-6.9.7-6.9-7-.1-18.6 0-37.1 0-55.7 0-2 .1-4.1.5-6 1.3-5.9 5.2-9.7 11.2-9.8 13.9-.2 27.8-.2 41.7-.1 4.5-.1 7.2 3 9 8.3z"/><path d="M465.9 167.6c-2.2 0-3.7-.1-4.7-1.2-1.3-1.3-1.3-3-1.2-6.3V103c0-5.9-.9-6.8-6.8-6.8h-28.3c-5.4 0-6.6 1.2-6.6 6.5v58.8c0 2.1 0 3.8-1.2 4.9-1.2 1.2-2.9 1.2-4.8 1.1h-2.4c-2.8 0-4.5.1-5.7-1.2-1.3-1.3-1.3-2.9-1.2-6.3v-55.5c0-1.4 0-2.9-.2-4.3-.4-3.5-2.4-3.9-3.9-3.9-10.9-.1-22.2-.1-33.4 0-1.6 0-3.5.5-4 3.9-.2 1.3-.2 2.6-.2 4v56.9c0 2.4 0 4.1-1.2 5.2-1.2 1.2-2.8 1.1-5.1 1.1h-1.9c-3.2 0-4.8 0-6-1.2-1.2-1.2-1.1-2.7-1.1-5.2v-2.6c-.1-18.6 0-37.2 0-55.7 0-1.8.1-4.2.6-6.5 1.5-7.1 6.3-11.3 13.2-11.4 14.3-.2 28.5-.2 41.8-.1 4.7 0 7.5 2.5 9.2 5.4 3.2-5 8.1-5.8 13.1-5.7 7.3.1 14.7.1 22 .1h11.2c1.7 0 3.4.1 5.1.2 7.2.7 12.2 5.6 13 12.8.2 1.8.3 3.6.3 5.4v58.2c0 2.2 0 4-1.2 5.1-1.2 1.2-3 1.2-5.1 1.2h-2c-.5.2-.9.2-1.3.2zm-83.8-75.4c5.6 0 11.2 0 16.8.1 4.5.1 7.4 2.9 7.9 7.6.2 1.6.2 3.2.2 4.8v55.6c0 1.5 0 3.1.1 3.5.1-.1 1.4-.2 2.7-.2h4.3c.1-.5.1-1.4.1-1.9v-58.8c0-7.6 3-10.6 10.6-10.6h28.3c8.1 0 10.9 2.8 10.9 10.9v57.1c0 1.5 0 3.1.1 3.5.1-.1 1.5-.1 2.8-.1h2c.7 0 2.1 0 2.4-.1-.2 0-.2-1.4-.2-2.1v-58.1c0-1.6-.1-3.3-.3-4.9-.6-5.2-4.1-8.6-9.3-9.2-1.5-.2-3.1-.2-4.7-.2h-11.1c-7.4 0-14.7 0-22.1-.1-5.5-.1-9.3 1.1-11 7.2l-1.8 6.3-2.1-6.2c-1.7-5-3.8-7-7.3-7.1-13.3-.1-27.4-.2-41.6.1-4.8.1-8.1 3-9.2 8.1-.4 1.9-.5 4-.5 5.6 0 18.6-.1 37.1 0 55.7v4.9c.6.1 1.8.1 3 .1h2c.7 0 1.6 0 2.1-.1.1-.5.1-1.5.1-2.2v-56.9c0-1.5 0-3 .2-4.5.7-4.7 3.6-7.4 8-7.5 5.5-.3 11.1-.3 16.6-.3zm-219.2 25.9c0-6.2.2-12.2-.1-18.1-.2-3.7-2.8-5.7-7.2-5.7h-34.4c-2.8 0-5.7-.1-8.5 0-2.8.2-4-.7-4-3.7 0-2.9 1-3.9 3.9-3.8 13.9.1 27.8 0 41.7.1 2.6 0 5.3 0 7.9.2 6.4.4 10.5 4.1 11.7 10.4.3 1.6.5 3.2.5 4.8v48.1c0 .9-.1 1.8-.2 2.7-1 8.1-5 12.3-13.1 12.4-15.5.3-31 .3-46.5 0-8.6-.2-13-5.3-13.2-13.9-.1-3.4-.1-6.9 0-10.3.1-7.9 4-13 11.7-14.4 12-2.3 24.1-4.2 36.2-6.3 4.5-.9 9-1.7 13.6-2.5zm.1 7.9c-.8 0-1.3-.1-1.8 0-13.9 2.3-27.8 4.6-41.6 7.1-4.6.8-6.9 3.9-7 8.6-.1 2.5 0 5.1 0 7.6 0 6.6 2.1 8.7 8.8 8.8 6.4.1 12.8 0 19.2 0 5.6 0 11.2 0 16.7-.3 3.7-.2 5.6-2.5 5.8-6.2.1-2.9.1-5.9.1-8.8-.2-5.6-.2-11.2-.2-16.8z"/><path d="M137.5 167.7c-7.8 0-15.5-.1-23-.2-9.5-.2-15-6-15.2-15.9-.1-3.5-.1-6.9 0-10.4.1-9 4.9-14.8 13.4-16.4 8.5-1.6 17-3 25.6-4.5l22.6-3.8v-3.8c0-4.2.1-8.4-.1-12.5 0-.9-.2-3.7-5.2-3.7h-37c-1.9 0-3.9-.1-5.8.1-1.3.1-3.3 0-4.6-1.3-1.4-1.3-1.6-3.2-1.6-4.5 0-1.3.1-3.2 1.4-4.5 1.3-1.3 3.1-1.4 4.5-1.4 9.5.1 18.9.1 28.4.1h13.3c2.8 0 5.4 0 8.1.2 7.4.5 12.2 4.8 13.6 12 .3 1.8.5 3.6.5 5.2v48.1c0 1-.1 2-.2 3-1.2 9.4-6.1 14.1-15.1 14.2-7.9-.1-15.8 0-23.6 0zm.9-75.5h17.2c5.6 0 9.1 2.9 9.3 7.7.2 4.2.1 8.4.1 12.7v7.2l-26 4.4c-8.5 1.4-17 2.8-25.5 4.4-6.6 1.3-9.9 5.4-10.1 12.5-.1 3.4-.1 6.8 0 10.3.1 7.7 3.9 11.7 11.1 11.9 15 .3 30.6.3 46.5 0 6.8-.1 10.1-3.3 11.1-10.6.1-.8.2-1.6.2-2.5v-48.1c0-1.4-.2-2.9-.4-4.5-1-5.4-4.3-8.3-9.8-8.7-2.5-.2-5.1-.2-7.6-.2h-13.4c-9.5 0-18.9 0-28.4-.1-1.3 0-1.6.2-1.6.2s-.2.2-.2 1.5.3 1.5.3 1.5.3.2 1.6.2c2-.1 4.1-.1 6.1-.1h12.2c2.2.3 4.8.3 7.3.3zm-7.5 67.9h-9.6c-7.8-.1-10.8-3.1-10.8-10.8v-7.7c.2-5.8 3.3-9.6 8.7-10.6 10.4-1.9 20.8-3.6 31.2-5.3l10.5-1.7c.4-.1.8-.1 1.4-.1h2.8v21.3c0 2.2 0 4.3-.1 6.5-.2 4.9-3 7.9-7.7 8.1-4.4.3-8.8.3-13.1.3h-13.3zm30-32l-9.9 1.7c-10.4 1.7-20.8 3.5-31.1 5.3-3.5.6-5.2 2.8-5.3 6.7-.1 1.9-.1 3.8 0 5.8v1.7c0 5.5 1.2 6.7 6.8 6.7 6.4.1 12.8 0 19.1 0h3.7c4.2 0 8.6 0 12.9-.3 1.7-.1 3.7-.7 3.8-4.2.1-2.1.1-4.2.1-6.2l-.1-17.2zm153-10c0-6.2.2-12.2-.1-18.1-.2-3.7-2.8-5.7-7.2-5.7h-34.4c-2.8 0-5.7-.1-8.5 0-2.8.2-4-.7-4-3.7 0-2.9 1-3.9 3.9-3.8 13.9.1 27.8 0 41.7.1 2.6 0 5.3 0 7.9.2 6.4.4 10.5 4 11.7 10.4.4 2 .5 4 .5 6v45.6c0 1.3 0 2.6-.2 3.9-1 8.2-5.1 12.3-13.4 12.5-15.3.2-30.6.3-45.9 0-8.7-.1-13.3-5.2-13.5-13.9-.1-3.4-.1-6.9 0-10.3.1-7.9 4-13 11.7-14.4 12-2.3 24.1-4.2 36.2-6.3 4.5-.9 9-1.7 13.6-2.5zm.1 7.9c-.9 0-1.4-.1-1.9 0-13.8 2.3-27.6 4.5-41.3 7-4.7.8-7.1 3.9-7.3 8.8-.1 2.6 0 5.3 0 7.9 0 6 2.2 8.3 8.2 8.4 5.3.1 10.5 0 15.8 0 6.3 0 12.6.1 18.9-.1 5.5-.1 7.5-2.3 7.6-7.7V126z"/><path d="M288.6 167.7c-7.7 0-15.3-.1-22.7-.2-9.7-.2-15.3-6-15.5-16-.1-3.5-.1-6.9 0-10.4.1-9 4.9-14.8 13.4-16.4 8.5-1.6 17-3 25.5-4.5l22.6-3.8v-3.8c0-4.2.1-8.4-.1-12.5 0-.9-.1-3.7-5.2-3.7h-37c-1.9 0-3.8-.1-5.8.1-1.3.1-3.3 0-4.6-1.3-1.4-1.3-1.6-3.2-1.6-4.5 0-1.3.1-3.2 1.4-4.5 1.3-1.3 3.1-1.4 4.5-1.4 9.5.1 18.9.1 28.4.1h13.3c2.8 0 5.4 0 8.1.2 7.4.5 12.2 4.8 13.6 12.1.3 1.9.5 4 .5 6.4v45.6c0 1.4 0 2.8-.2 4.2-1.2 9.3-6.3 14.1-15.4 14.3-7.8-.1-15.6 0-23.2 0zm.9-75.5h17.2c5.6 0 9.1 2.9 9.3 7.7.2 4.2.1 8.4.1 12.7v7.2l-26 4.4c-8.5 1.4-17 2.8-25.4 4.4-6.6 1.3-9.9 5.4-10.1 12.5-.1 3.4-.1 6.8 0 10.3.1 7.8 4 11.8 11.4 11.9 14.9.3 30.3.3 45.9 0 7.1-.1 10.5-3.3 11.4-10.7.2-1.2.2-2.5.2-3.7v-45.6c0-2.2-.2-4-.5-5.7-1-5.4-4.3-8.3-9.8-8.7-2.5-.2-5.1-.2-7.6-.2h-13.4c-9.5 0-18.9 0-28.4-.1-1.3 0-1.6.2-1.6.2s-.2.3-.2 1.6.3 1.5.3 1.5.3.2 1.6.2c2-.1 4-.1 6.1-.1h12.1c2.2.2 4.8.2 7.4.2zm8.7 67.9h-26.6c-7.1-.1-10.2-3.3-10.2-10.4v-8c.2-5.9 3.4-9.7 9-10.7 10.4-1.8 20.8-3.6 31.2-5.3l10.1-1.7c.4-.1.9-.1 1.5-.1h2.8v26.4c-.1 6.5-3 9.5-9.6 9.7-2.7.1-5.4.1-8.2.1zm-10.6-4.1h5.6c4.4 0 8.8.1 13.2-.1 4.3-.1 5.5-1.3 5.6-5.7V128l-9.6 1.6c-10.4 1.7-20.8 3.4-31.2 5.3-3.7.6-5.4 2.8-5.6 6.8-.1 2.2-.1 4.4 0 6.5v1.3c0 4.9 1.3 6.3 6.2 6.4 3.7.1 7.4.1 11.1 0l4.7.1z"/><path class="st0" d="M23.4 158h61.2c3.8 0 5.6 2.6 3.9 6.1-.4.8-1.9 1.3-3 1.3-8 .1-16 .1-24 .1H16.2c-3.9 0-4.1-.2-4.1-4.1V60.7c0-3.8.3-4 3.9-4 8.4 0 7.4-.9 7.4 7.2V158z"/><path class="st0" d="M72.5 167.6H16.2c-5 0-6.2-1.2-6.2-6.2V60.7c0-1.9 0-3.7 1.2-4.9 1.2-1.2 2.9-1.2 4.8-1.2h2.3c3.1 0 4.8 0 6 1.2 1.2 1.2 1.2 2.9 1.2 5.8v94.3h59.2c2.6 0 4.7 1 5.8 2.7 1.1 1.7 1.1 4 0 6.3-.9 1.8-3.4 2.5-4.8 2.5-4.4.2-8.8.2-13.2.2zM15.8 58.7c-.5 0-1.6 0-1.9.1.2 0 .2 1.4.2 1.9v100.7c0 .6 0 1.9.1 2.3 0-.2 1.4-.2 2-.2H67c6.2 0 12.3 0 18.5-.1.5 0 1.2-.3 1.3-.4.3-.7.4-1.6.1-2.1-.3-.5-1.2-.8-2.3-.8H21.3V61.6c0-1.3 0-2.7-.1-3.1-.1.1-1.6.2-3 .2h-2.4z"/><path d="M208.2 94.2v54.3c0 1.2 0 2.4.2 3.6.5 3.5 2.1 5.4 5.7 5.6 6.1.3 12.2.2 18.2.3h3.7c3.7 0 5.5 3.1 3.7 6.3-.3.6-1.3 1.1-1.9 1.1-9.7 0-19.5.3-29.2-.3-7.6-.5-11.4-5.4-11.5-13.1-.1-9.4-.1-18.9-.1-28.3 0-16.1.1-32.3-.1-48.4 0-2.8.9-3.7 3.7-3.7 8.5.2 7.5-1 7.5 7.4 0 7.7 0 7.7 7.8 7.7 5.7 0 11.4.1 17 0 3-.1 3.2 1.5 3.2 3.8 0 2.4-.4 3.8-3.3 3.8-8-.1-16.1-.1-24.6-.1z"/><path d="M223.2 167.6c-4.9 0-9.9-.1-14.8-.4-8.4-.6-13.3-6.1-13.5-15.1-.1-6.9-.1-13.8-.1-20.7v-21.2c0-11.6 0-23.3-.1-34.9 0-1.4.1-3.2 1.4-4.4 1.3-1.3 3.1-1.3 4.4-1.3h2.8c2.8 0 4.4 0 5.6 1.2 1.2 1.2 1.2 2.8 1.2 5.8V79c0 5.7 0 5.7 5.8 5.7h5c4 0 8 .1 11.9-.1 1.8-.1 3 .3 3.9 1.2 1.4 1.3 1.4 3.3 1.4 4.6 0 1.6-.2 3.3-1.4 4.5-.9.9-2.3 1.3-4 1.3-5.8-.1-11.5-.1-17.4-.1h-5.2v52.2c0 1.1 0 2.2.2 3.3.4 3.1 1.7 3.7 3.8 3.8 4.3.2 8.6.2 12.9.2h8.9c2.5 0 4.6 1.1 5.7 3 1.1 1.9 1 4.2-.2 6.3-.8 1.4-2.6 2.2-4.2 2.2h-7c-2.3.5-4.6.5-7 .5zm-24-93.8s-.2.3-.2 1.5c.1 11.6.1 23.3.1 34.9v21.2c0 6.9 0 13.7.1 20.6.1 4.8 1.8 10.6 9.6 11.1 7.1.5 14.4.4 21.5.4h7.6c.6-1 .7-1.8.3-2.4-.4-.6-1.1-1-2.2-1h-8.9c-4.4 0-8.7 0-13.1-.3-4.4-.2-7-2.7-7.6-7.3-.2-1.3-.2-2.6-.2-3.9V92.3h9.3c6 0 11.7 0 17.5.1.9.1 1.1-.1 1.1-.1s.1-.3.1-1.6c0-.9-.1-1.5-.2-1.7-.1 0-.3-.1-.9-.1-4 .1-8.1.1-12.1.1h-5c-8.9 0-9.8-.9-9.9-9.7v-2.6c0-1.3 0-2.7-.1-3 0 .2-1.3.2-2.5.2h-2.9c-1.2-.2-1.4-.1-1.4-.1zm210 183.7c6.6 0 12.7.1 18.8-.1 1 0 2.2-.9 2.9-1.8 8.3-10.1 16.6-20.3 24.8-30.5 1.8-2.3 3.8-3.4 6.7-3.3 3.1.2 6.2 0 9.3 0 .1.3.3.6.4.8-10.4 12.8-20.8 25.5-31.3 38.5 10.5 12.9 20.9 25.7 31.3 38.5-5.6 2.6-13.8.8-17.2-3.4-7.9-9.8-15.8-19.6-23.9-29.2-.9-1.1-2.8-2-4.3-2.1-5.7-.2-11.5-.1-17.5-.1v18.6c0 4.7-.1 9.3 0 14 .1 2.3-.8 3.1-3 3-9.5-.1-8.1 1.1-8.1-7.7-.1-32.3 0-64.5 0-96.8 0-4.4 0-4.4 4.4-4.4 7.7 0 6.7-.7 6.7 6.6v59.4z"/><path d="M466.2 303c-5 0-10.2-2-12.9-5.3l-4.7-5.8c-6.4-7.8-12.7-15.7-19.2-23.5-.5-.6-1.9-1.3-2.8-1.3-4.2-.2-8.3-.1-12.6-.1h-2.8v30.6c0 1.7-.4 3-1.2 3.9-.9.9-2.1 1.3-3.9 1.3h-3c-3.2 0-4.9 0-6.1-1.2-1.2-1.2-1.2-2.8-1.1-5.5v-99.9c0-2.6 0-4.2 1.2-5.3 1.2-1.2 2.7-1.1 5.3-1.1h1.9c3-.1 4.6 0 5.8 1.2 1.2 1.2 1.1 2.8 1.1 5.4v59.1h2.8c4.8 0 9.3 0 13.9-.1.2 0 .8-.4 1.3-1 8.3-10.1 16.6-20.2 24.7-30.5 2.4-3 5.1-4.2 8.5-4 2.1.1 4.2.1 6.3.1h4.1l1.6 3.2-31.1 38.2 31.9 39.3-2.4 1.1c-1.8.8-4.2 1.2-6.6 1.2zm-47.4-40c2.7 0 5.4 0 8.1.1 2.1.1 4.5 1.2 5.8 2.8 6.5 7.8 12.8 15.6 19.2 23.5l4.7 5.8c2.4 2.9 7.7 4.4 12.1 3.6l-30.4-37.4 1-1.4 29.2-36c-2.1 0-4.1 0-6.2-.1-2-.2-3.5.6-5 2.5-8.2 10.2-16.5 20.4-24.8 30.5-1 1.2-2.7 2.5-4.4 2.5-4.6.1-9.2.1-14 .1h-6.9v-65.6c-.6-.1-1.7-.1-2.8-.1h-1.9c-.9 0-1.8 0-2.3.1-.1.5-.1 1.5-.1 2.3v99.9c0 1.2-.1 2.4.1 2.8.1-.2 2-.2 4-.2h2.1c.5 0 .8-.1.9-.1 0 0 .1-.3 0-.8-.1-3.4-.1-6.8 0-10.2V263h11.6zm-116.9 3.3v-29.5c0-9.9 4.5-14.7 14.4-14.8 14.4-.2 28.8-.2 43.2 0 9.7.1 14.2 4.9 14.3 14.6.1 20.2 0 40.4.1 60.6 0 2.7-.9 3.6-3.5 3.5-9-.2-7.6 1-7.6-7.6-.1-18 0-35.9 0-53.9 0-1.4 0-2.9-.3-4.2-.6-3.7-2.6-5.6-6.4-5.6-12.1-.1-24.1-.1-36.2 0-4.1 0-6.1 2-6.6 6.1-.2 1.3-.2 2.6-.2 3.9v56.9c0 4.2-.1 4.3-4.2 4.3-8.1 0-6.9.7-6.9-7-.1-9-.1-18.2-.1-27.3z"/><path d="M370.6 302.8h-3.1c-3 0-4.6 0-5.8-1.2-1.2-1.2-1.1-2.8-1.1-5.3v-56.9c0-1.4 0-2.7-.2-3.9-.5-2.8-1.7-3.9-4.4-3.9-12.1-.1-24.1-.1-36.2 0-2.9 0-4.2 1.2-4.6 4.3-.2 1.2-.2 2.5-.2 3.7v56.9c0 2.4 0 4-1.2 5.2-1.2 1.2-2.8 1.1-5.1 1.1h-1.9c-3.2 0-4.8 0-6-1.2-1.2-1.2-1.1-2.7-1.1-5.2v-59.7c.1-11.2 5.4-16.7 16.4-16.8 14.7-.2 29.2-.2 43.3 0 10.8.1 16.3 5.8 16.3 16.7v60.6c0 1.2-.1 3-1.4 4.3-.9 1.1-2.5 1.3-3.7 1.3zm-5.8-4.2c.6.1 1.7.1 2.8.1h2.9c1 0 1.3-.1 1.3-.1s.2-.3.2-1.3v-60.6c0-8.7-3.7-12.5-12.2-12.6-14-.2-28.5-.2-43.2 0-8.8.1-12.4 3.8-12.4 12.7v61.8c.6.1 1.8.1 2.9.1h1.9c.7 0 1.6 0 2.1-.1.1-.5.1-1.4.1-2.2v-56.9c0-1.4 0-2.8.2-4.2.8-6.5 5.1-7.9 8.6-7.9 12.1-.1 24.2-.1 36.2 0 4.7 0 7.6 2.6 8.4 7.3.3 1.5.3 3 .3 4.6v56.9c-.1 1-.1 1.9-.1 2.4zm-192-52.1v-50.8c0-3.9.1-3.9 3.9-3.9 8.1 0 7.2-.9 7.2 7.1 0 30.2 0 60.4-.1 90.7 0 2.9.7 3.8 3.7 3.7 19.3-.1 38.5-.1 57.8-.1 3.7 0 5.5 2.9 3.7 6.2-.4.8-2.2 1.2-3.3 1.2-16.3.1-32.7.1-49 .1-6.8 0-13.6-.1-20.4.1-2.8.1-3.6-1-3.6-3.7.1-16.9.1-33.7.1-50.6z"/><path d="M176.1 302.8c-1.2 0-2.8-.2-4-1.3-1.3-1.2-1.4-3-1.4-4.4.1-13.1.1-26.3.1-39.4v-61.9c0-2.2 0-3.8 1.1-4.9 1.1-1.1 2.7-1.1 4.8-1.1h2.3c2.9 0 4.6 0 5.8 1.2 1.2 1.2 1.2 2.9 1.2 5.8v9.4c0 27.8 0 55.6-.1 83.4 0 1.2.2 1.5.2 1.6 0 0 .4.1 1.4.1 14.9-.1 29.8-.1 44.7-.1h13.1c2.5 0 4.6 1.1 5.7 2.9 1.1 1.8 1 4.1-.2 6.3-1 1.8-3.7 2.3-5.1 2.3-13.4.1-26.7.1-40.1.1h-14.8c-4.8 0-9.6 0-14.5.1 0-.1-.1-.1-.2-.1zm-1.1-4.2s.3.1 1.3.1c4.9-.1 9.7-.1 14.6-.1h14.8c13.4 0 26.7 0 40.1-.1.7 0 1.5-.2 1.7-.4.3-.7.4-1.5.1-2-.3-.6-1.1-.9-2.2-.9h-13.1c-14.9 0-29.8 0-44.7.1-1.5 0-3.2-.1-4.4-1.3-1.2-1.2-1.4-2.9-1.4-4.4.1-27.8.1-55.6.1-83.4v-9.4c0-1.3 0-2.7-.1-3.1 0 .2-1.4.2-2.7.2h-4.2v63.6c0 13.2 0 26.3-.1 39.5 0 1.3.2 1.5.2 1.6zm102.7-37.5c0 12-.1 23.9.1 35.9 0 3-1 3.8-3.9 3.8-8.4-.2-7.3.9-7.3-7.3v-66.9c0-4.6 0-4.6 4.5-4.6 7.8 0 6.6-.6 6.6 6.6v32.5z"/><path d="M274.2 302.8h-2.9c-2.9 0-4.5 0-5.7-1.3-1.2-1.2-1.2-2.8-1.1-5.6v-69.4c0-2.8 0-4.3 1.2-5.5 1.2-1.2 2.8-1.2 5.4-1.2h1.8c3.1 0 4.7 0 5.9 1.2 1.1 1.2 1.1 2.7 1 5v44.7c0 8.8 0 17.5.1 26.3 0 1.3-.1 3.2-1.4 4.5-1.3 1.1-2.9 1.3-4.3 1.3zm-5.8-78.7c.2 0 .2 1.2.2 2.4v69.4c0 1.2 0 2.5.1 2.9 0-.2 1.4-.2 2.7-.2h2.5c1.2 0 1.6-.2 1.6-.2s.2-.3.2-1.5c-.1-8.8-.1-17.5-.1-26.3v-46.7c-.6-.1-1.7 0-2.8-.1H271c-1.1.2-2.3.2-2.6.3zm-1.8-28.6V187c0-1.7.7-2.6 2.5-2.6 10.6.1 8.4-1.3 8.6 8 .1 4 0 7.9 0 11.9 0 1.8-.7 2.7-2.5 2.6h-.6c-9.5-.1-7.9 1-8.1-7.7.1-1.3.1-2.5.1-3.7z"/><path d="M270.7 208.9c-2.5 0-4-.1-5-1.2-1.2-1.2-1.2-2.8-1.1-5.4V187c0-1.5.4-2.7 1.2-3.5.8-.8 1.9-1.2 3.4-1.2h3.7c3.1 0 4.8 0 6 1.2 1.1 1.2 1.1 2.7 1 5 0 1-.1 2.3 0 3.9.1 2.1 0 4.2 0 6.3v5.6c0 1.5-.4 2.7-1.2 3.5-.8.8-1.8 1.1-3.3 1.2l-.6-2v2.1H272c-.6-.2-1-.2-1.3-.2zm-1.8-22.5c-.2 0-.3.2-.3.6v15.4c0 1.1 0 2.3.1 2.6.1-.2 1.6-.2 3.1-.2h3.5c.3.1.4-.1.4-.5v-17.8c-.6-.1-1.8-.1-2.9 0h-3.7c-.1-.1-.2-.1-.2-.1z"/><path class="st0" d="M618.9 59.6V7.5l-69.1 94.1-38.2 162.7 105.4 65v-36.1l-68.9-43.8 31.6-134.3z"/><path d="M651.2 59.6V7.5l69.2 94.1 38.2 162.7-105.4 65v-36.1l68.9-43.8-31.6-134.3z"/></g></switch></svg>